# xmcd CD database file
#
# Track frame offsets:
#	150
#	15420
#	31757
#	47762
#	62320
#	76665
#	92525
#	108492
#	122100
#	138750
#	158852
#	175307
#
# Disc length: 2507 seconds
#
# Revision: 1
# Processed by: cddbd v1.4PL0 Copyright (c) Steve Scherf et al.
# Submitted via: CDex 1.40Release
#
DISCID=8309c90c
DTITLE=Teresa Bright - Painted Tradition
DYEAR=1994
DGENRE=Native American
TTITLE0=Hawaiian War Chant
TTITLE1=Kuhio Beach
TTITLE2=Kaulana O Hilo Hanakahi
TTITLE3=Ta`aroa
TTITLE4=`O Ko`u Aloha Ia `Oe
TTITLE5=Lei Aloha, Lei Makamae
TTITLE6=Ki`ipau Chant
TTITLE7=Lei Mokihana
TTITLE8=Crushed Flowers In My Lei
TTITLE9=Nani Kaua`i
TTITLE10=Ka Moa`e
TTITLE11=Hinale
EXTD=YEAR: 1994 ID3G: 64
EXTT0=
EXTT1=
EXTT2=
EXTT3=
EXTT4=
EXTT5=
EXTT6=
EXTT7=
EXTT8=
EXTT9=
EXTT10=
EXTT11=
PLAYORDER=
